<svg xmlns="http://www.w3.org/2000/svg"  viewBox="0 0 64 64" width="100px" height="100px" baseProfile="basic"><path fill="#e2e9f7" d="M53.915,28.551l-0.469-7.049c0,0,2.397-9.246-1.707-10.23S40.337,14.701,39,15.582	c-5.935-2.348-15.246-0.548-17.261-0.136c-0.989-0.625-8.745-4.462-10.239-3.065c-4.433,4.143-3.012,9.506-1.687,12.457	c-1.546,2.634-3.909,7.808-2.634,13.255C10.75,53.337,23.217,54,31.237,54C46.332,54,62.317,46.413,53.915,28.551z"/><path fill="#ed7899" d="M55.1,19.921c-1.883-2.641-6.494-1.126-7.617-0.514L44.5,26.002c0.245,1.843,1.663,4.46,4.622,4.46	c2.959,0,4.407-2.102,5.161-3.089C55.261,26.092,56.983,22.562,55.1,19.921z"/><path fill="#ed7899" d="M36.804,10c-2.609,0-4.745,3.31-5.69,5.429c-0.946,2.12-1.842,5.935,0.571,8.038	C34.423,25.854,39,22.88,39,22.88l4.065-6.033C42.299,12.144,39.315,10,36.804,10z"/><circle cx="43.5" cy="21.502" r="4.5" fill="#f7a1c8"/><path fill="#8d6c9f" d="M43.5,27.002c-3.032,0-5.5-2.467-5.5-5.5s2.468-5.5,5.5-5.5s5.5,2.467,5.5,5.5	S46.532,27.002,43.5,27.002z M43.5,18.002c-1.93,0-3.5,1.57-3.5,3.5s1.57,3.5,3.5,3.5s3.5-1.57,3.5-3.5S45.43,18.002,43.5,18.002z"/><path fill="#8d6c9f" d="M43.5,27.002c-3.032,0-5.5-2.467-5.5-5.5s2.468-5.5,5.5-5.5s5.5,2.467,5.5,5.5	S46.532,27.002,43.5,27.002z M43.5,18.002c-1.93,0-3.5,1.57-3.5,3.5s1.57,3.5,3.5,3.5s3.5-1.57,3.5-3.5S45.43,18.002,43.5,18.002z"/><path fill="#8d6c9f" d="M49.122,31.462c-3.222,0-5.263-2.681-5.613-5.329c-0.072-0.547,0.312-1.05,0.86-1.123	c0.547-0.073,1.05,0.313,1.122,0.86c0.165,1.242,1.135,3.591,3.631,3.591c2.326,0,3.534-1.596,4.256-2.55l0.11-0.146	c0.706-0.925,2.368-4.062,0.797-6.264c-1.409-1.978-5.383-0.729-6.324-0.217c-0.487,0.265-1.093,0.085-1.356-0.399	c-0.265-0.485-0.085-1.092,0.399-1.356c1.191-0.649,6.519-2.542,8.91,0.812c2.04,2.861,0.618,6.734-0.836,8.639l-0.105,0.139	C54.151,29.204,52.443,31.462,49.122,31.462z"/><path fill="#8d6c9f" d="M34.327,25.396c-1.14,0-2.302-0.305-3.3-1.175c-2.617-2.281-2.143-6.248-0.826-9.199	C30.649,14.016,33.075,9,36.805,9c2.888,0,6.387,2.405,7.248,7.687c0.089,0.545-0.281,1.059-0.826,1.147	c-0.551,0.095-1.06-0.282-1.148-0.826C41.405,12.88,38.873,11,36.805,11c-1.81,0-3.703,2.429-4.777,4.836	c-0.979,2.194-1.482,5.311,0.314,6.877c2.135,1.861,6.074-0.647,6.115-0.672c0.461-0.301,1.082-0.166,1.382,0.296	c0.3,0.463,0.169,1.081-0.294,1.381C39.397,23.815,36.921,25.396,34.327,25.396z"/><path fill="#8d6c9f" d="M0.999,38c-0.469,0-0.888-0.331-0.98-0.809c-0.105-0.542,0.248-1.067,0.79-1.173	c0.204-0.04,5.091-0.971,10.366-0.036c0.544,0.097,0.906,0.616,0.81,1.159c-0.097,0.543-0.609,0.906-1.159,0.811	c-4.91-0.872-9.588,0.021-9.634,0.029C1.127,37.994,1.062,38,0.999,38z"/><path fill="#8d6c9f" d="M4,43.984c-0.433,0-0.832-0.283-0.959-0.719c-0.155-0.53,0.147-1.085,0.677-1.241	C3.86,41.982,7.25,41,11,41c0.553,0,1,0.448,1,1s-0.447,1-1,1c-3.453,0-6.687,0.934-6.719,0.943C4.188,43.971,4.093,43.984,4,43.984	z"/><path fill="#8d6c9f" d="M6.001,51c-0.277,0-0.553-0.114-0.75-0.338c-0.365-0.414-0.327-1.044,0.086-1.41	c0.144-0.127,3.577-3.131,8.443-4.227c0.538-0.12,1.074,0.217,1.195,0.756s-0.217,1.074-0.756,1.195	c-4.348,0.979-7.526,3.746-7.558,3.774C6.472,50.917,6.235,51,6.001,51z"/><path fill="#8d6c9f" d="M58.978,49c-0.165,0-0.332-0.041-0.486-0.126c-3.653-2.038-6.72-2.901-6.75-2.91	c-0.532-0.148-0.844-0.699-0.696-1.231c0.147-0.533,0.704-0.842,1.229-0.697c0.134,0.037,3.315,0.929,7.191,3.09	c0.482,0.269,0.655,0.878,0.386,1.361C59.669,48.815,59.328,49,58.978,49z"/><path fill="#8d6c9f" d="M61.001,42c-0.068,0-0.138-0.007-0.207-0.021c-3.553-0.748-6.809-0.979-6.842-0.981	c-0.551-0.038-0.966-0.516-0.928-1.066c0.038-0.551,0.514-0.959,1.065-0.929c0.139,0.009,3.422,0.242,7.116,1.019	c0.54,0.114,0.887,0.644,0.772,1.185C61.88,41.677,61.464,42,61.001,42z"/><path fill="#8d6c9f" d="M62.001,36c-0.039,0-0.078-0.002-0.118-0.007c-4.496-0.533-8.713-0.007-8.756-0.001	c-0.546,0.076-1.048-0.317-1.119-0.865c-0.069-0.548,0.317-1.048,0.865-1.119c0.181-0.024,4.495-0.564,9.244-0.001	c0.549,0.065,0.94,0.562,0.876,1.111C62.933,35.626,62.501,36,62.001,36z"/><ellipse cx="44.068" cy="38.957" fill="#8d6c9f" rx="1.851" ry="2.543"/><ellipse cx="18.829" cy="38.957" fill="#8d6c9f" rx="1.851" ry="2.543"/><path fill="#8d6c9f" d="M31.5,46c-1.93,0-3.5-1.346-3.5-3s1.57-3,3.5-3s3.5,1.346,3.5,3S33.43,46,31.5,46z M31.5,42	c-0.799,0-1.5,0.467-1.5,1s0.701,1,1.5,1s1.5-0.467,1.5-1S32.299,42,31.5,42z"/><path fill="#8d6c9f" d="M31.236,55C17.04,55,8.382,49.221,6.199,38.288c-1.638-8.202,3.769-15.551,4-15.86	c0.331-0.442,0.956-0.532,1.398-0.202c0.442,0.33,0.533,0.956,0.204,1.399C11.75,23.694,6.7,30.583,8.16,37.896	C10.161,47.918,17.925,53,31.236,53c10.251,0,18.531-3.253,22.15-8.701c2.807-4.225,2.842-9.666,0.104-16.172	c-0.214-0.509,0.025-1.095,0.534-1.31c0.508-0.214,1.095,0.024,1.31,0.534c3.013,7.162,2.918,13.236-0.282,18.054	C51.062,51.413,42.159,55,31.236,55z"/><path fill="#8d6c9f" d="M53.901,19.947c-0.059,0-0.118-0.005-0.179-0.016c-0.543-0.098-0.904-0.618-0.807-1.162	c0.309-1.709,0.063-6.062-1.475-6.542c-1.985-0.621-6.427,1.174-8.762,2.451c-0.485,0.265-1.093,0.086-1.357-0.398	s-0.086-1.092,0.398-1.357c0.694-0.38,6.892-3.679,10.316-2.605c3.47,1.084,3.07,7.574,2.848,8.807	C54.797,19.608,54.376,19.947,53.901,19.947z"/><line x1="23.721" x2="22.789" y1="22.903" y2="21.134" fill="none" stroke="#8d6c9f" stroke-linecap="round" stroke-miterlimit="10" stroke-width="2"/><line x1="19.885" x2="18.671" y1="25.357" y2="23.768" fill="none" stroke="#8d6c9f" stroke-linecap="round" stroke-miterlimit="10" stroke-width="2"/><line x1="16.608" x2="15.074" y1="28.434" y2="27.15" fill="none" stroke="#8d6c9f" stroke-linecap="round" stroke-miterlimit="10" stroke-width="2"/><path fill="#8d6c9f" d="M9.725,25.988c-0.374,0-0.733-0.211-0.904-0.571c-1.028-2.167-1.77-7.07-0.485-10.639	c0.58-1.612,1.502-2.724,2.741-3.303c3.086-1.44,9.165,1.921,10.83,2.905c1.312-0.296,5.52-1.14,9.729-0.884	c0.551,0.033,0.971,0.507,0.938,1.059s-0.518,0.975-1.059,0.938c-4.658-0.284-9.482,0.912-9.53,0.924	c-0.262,0.064-0.538,0.023-0.769-0.118c-2.624-1.616-7.463-3.863-9.292-3.011c-0.738,0.345-1.312,1.075-1.706,2.168	c-1.045,2.904-0.465,7.26,0.41,9.104c0.237,0.499,0.024,1.095-0.475,1.332C10.014,25.957,9.868,25.988,9.725,25.988z"/></svg>